<svg xmlns="http://www.w3.org/2000/svg" width="1200" height="630" viewBox="0 0 1200 630">
  <rect width="1200" height="630" fill="#0a0a0a"/>
  <circle cx="180" cy="315" r="280" fill="#ff3d7f" fill-opacity="0.12"/>
  <circle cx="1050" cy="200" r="180" fill="#ff3d7f" fill-opacity="0.07"/>
  <g opacity="0.04" stroke="#ffffff" stroke-width="1">
    <line x1="0" y1="105" x2="1200" y2="105"/><line x1="0" y1="210" x2="1200" y2="210"/>
    <line x1="0" y1="315" x2="1200" y2="315"/><line x1="0" y1="420" x2="1200" y2="420"/>
    <line x1="0" y1="525" x2="1200" y2="525"/>
    <line x1="240" y1="0" x2="240" y2="630"/><line x1="480" y1="0" x2="480" y2="630"/>
    <line x1="720" y1="0" x2="720" y2="630"/><line x1="960" y1="0" x2="960" y2="630"/>
  </g>
  <rect x="100" y="225" width="64" height="64" rx="14" fill="#ff3d7f" fill-opacity="0.15"/>
  <path d="M132 235l-16 28h12l-6 20 20-24h-12l10-24z" fill="#ff3d7f"/>
  <text x="184" y="280" font-family="Arial,sans-serif" font-size="76" font-weight="900" fill="#ffffff" letter-spacing="-2">FanMaker</text>
  <text x="186" y="335" font-family="Arial,sans-serif" font-size="26" fill="#777777" letter-spacing="2">K-POP 팬 창작 플랫폼</text>
  <rect x="186" y="358" width="56" height="4" rx="2" fill="#ff3d7f"/>
  <text x="186" y="405" font-family="Arial,sans-serif" font-size="20" fill="#444444">AI로 직접 프로듀싱하는 K-pop 팬 창작 커뮤니티</text>
  <g transform="translate(980,315)" fill="none" stroke="#ff3d7f">
    <circle r="160" stroke-opacity="0.15"/><circle r="110" stroke-opacity="0.12"/><circle r="60" stroke-opacity="0.1"/>
  </g>
  <path d="M910 180l-20 40h16l-12 38 38-46h-20l16-32z" fill="#ff3d7f" fill-opacity="0.2"/>
</svg>